<?xml version="1.0" encoding="utf-8"?>
<!-- Generator: Adobe Illustrator 25.0.0, SVG Export Plug-In . SVG Version: 6.00 Build 0)  -->
<svg version="1.1" id="Calque_1" xmlns="http://www.w3.org/2000/svg" xmlns:xlink="http://www.w3.org/1999/xlink" x="0px" y="0px"
	 viewBox="0 0 111.8 80.2" style="enable-background:new 0 0 111.8 80.2;" xml:space="preserve">
<style type="text/css">
	.st0{fill:#706F6F;}
	.st1{fill:#FFFFFF;}
</style>
<g id="Layer_2">
	<g id="Layer_1-2">
		<path class="st0" d="M33.6,8.1h44.6c5.4,0,9.7,4.3,9.7,9.7v44.6c0,5.4-4.3,9.7-9.7,9.7H33.6c-5.4,0-9.7-4.3-9.7-9.7V17.8
			C23.9,12.4,28.3,8.1,33.6,8.1z"/>
		<path class="st1" d="M77,11.7v42.9c0,0.7,0,1.5,0,2.2c-0.2,3.7-2.5,7-6,8.5l0.7-0.3c-2.4,0.9-5.1,0.7-7.6,0.7H23
			c-0.2,0-0.5,0-0.7,0c0.2,0,1,0.2,0.3,0L22,65.5c0.1-0.5,7.9,3.7,6.7,3c1.9,1,3.8,2.1,5.6,3.2c0.7,0.5,1.4,1,2,1.6
			c0.5,0.5,0.7,0.6,0.4,0.3c-0.1-0.2-0.3-0.3-0.5-0.5c-0.4-0.4,0.7,1,0.1,0.2c-0.2-0.4-0.5-0.7-0.7-1.1c-0.5-0.9-0.8-1.8-1-2.8
			l0.1,0.7c-0.2-2.2-0.3-4.4-0.2-6.6V25.7c0-0.7,0-1.5,0-2.2c0.2-3.8,2.5-7.2,6.1-8.6l-0.7,0.3c2.4-0.9,5.1-0.7,7.6-0.7h41
			c0.2,0,0.5,0.1,0.7,0.1c-0.2,0.1-1-0.2-0.3,0c-0.1,0,0.7,0.1,0.6,0.2c-0.1,0.4-7.9-3.7-6.7-3c-1.9-1-3.8-2-5.6-3.2
			c-0.7-0.5-1.4-1-2-1.6c-0.5-0.5-0.7-0.6-0.4-0.3c0.1,0.2,0.3,0.3,0.5,0.5c0.4,0.4-0.7-1-0.1-0.2c0.2,0.4,0.5,0.7,0.7,1.1
			c0.4,0.9,0.7,1.8,0.9,2.8L76.8,10C76.9,10.5,77,11.1,77,11.7c0,1.3,1.7,2.4,2.5,3.1c2.3,1.8,4.8,3.5,7.4,4.8
			c2.5,1.5,5.2,2.8,8,3.8c0.4,0.1,3.9,1.3,3.9,0.5c-0.1-5.7-4.1-9.3-8.5-12.4c-5.5-4-11.5-7.1-18-9.1c-1.4-0.4-2.9-0.7-4.4-0.7
			c-2.4,0-4.7,0-7.1,0H23.7c-5.7,0-10.6,4.2-10.7,10c-0.1,6.9,0,13.9,0,20.8c0,7.8,0,15.6,0,23.4c-0.1,2.1,0.4,4.1,1.4,5.9
			c1.7,2.9,4.5,5,7.1,6.9c5.5,4,11.5,7.1,18,9.1c2.9,0.8,5.9,0.7,8.9,0.7h38.7c0.9,0,1.7,0,2.6-0.1c3.6-0.4,6.7-2.6,8.3-5.8
			c1.2-2.5,0.9-5.4,0.9-8.2V23.9c0-1.2-1.7-2.4-2.5-3.1C94.1,19,91.6,17.3,89,16c-2.6-1.5-5.2-2.8-8-3.8C80.5,12,77,10.8,77,11.7z"
			/>
		<rect x="41.2" y="25.4" class="st1" width="29.3" height="28"/>
	</g>
</g>
</svg>
