<svg xmlns="http://www.w3.org/2000/svg" viewBox="0 0 320.79 80.16"><defs><style>.cls-1{fill:#706f6f;}.cls-2{fill:#1f2a4f;}.cls-3{fill:#fff;}.cls-4{font-size:19.39px;fill:#575756;font-family:CenturyGothic, Century Gothic;}</style></defs><g id="Layer_2" data-name="Layer 2"><g id="Layer_1-2" data-name="Layer 1"><rect class="cls-1" x="10.95" y="6.39" width="64" height="64" rx="9.71"/><path class="cls-2" d="M64,10V52.87c0,.74,0,1.48,0,2.22A9.82,9.82,0,0,1,58,63.58l.66-.27c-2.42.93-5.07.7-7.62.7H10.06A3.26,3.26,0,0,0,9.38,64c.24-.05,1,.2.33,0l-.65-.16c.12-.45,7.92,3.69,6.71,3.05a57.43,57.43,0,0,1,5.64,3.24,14.18,14.18,0,0,1,2,1.57c.54.49.67.6.39.34a3.34,3.34,0,0,0-.45-.47c-.43-.36.69,1,.14.17-.23-.37-.48-.73-.68-1.11a10.05,10.05,0,0,1-1-2.81l.12.7a41.18,41.18,0,0,1-.15-6.57V24.06c0-.73,0-1.47,0-2.21a9.83,9.83,0,0,1,6.08-8.65l-.66.26c2.42-.93,5.07-.7,7.62-.7H75.84a3.21,3.21,0,0,0,.68.05c-.24.06-1-.2-.33,0-.06,0,.65.15.64.16-.11.45-7.91-3.69-6.7-3a53.65,53.65,0,0,1-5.64-3.24,13.5,13.5,0,0,1-2-1.57q-.81-.74-.39-.33a3.26,3.26,0,0,0,.45.46c.43.36-.69-1-.14-.16.23.37.48.72.68,1.11A9.84,9.84,0,0,1,64,9l-.12-.7A10.85,10.85,0,0,1,64,10c0,1.26,1.69,2.43,2.48,3.07a49,49,0,0,0,7.42,4.85,48.74,48.74,0,0,0,8,3.79c.4.14,3.93,1.33,3.92.51-.1-5.69-4.09-9.3-8.48-12.4a62.6,62.6,0,0,0-18-9.13A16.39,16.39,0,0,0,54.94,0c-2.36,0-4.73,0-7.1,0H10.69C5,0,.13,4.2,0,10c-.1,6.92,0,13.86,0,20.78q0,11.7,0,23.39a11.93,11.93,0,0,0,1.4,5.91C3.08,63,5.87,65.09,8.52,67a62.1,62.1,0,0,0,18,9.13c2.88.85,5.91.66,8.88.66H74.13a19.85,19.85,0,0,0,2.56-.08A10.55,10.55,0,0,0,85,70.87c1.17-2.54.9-5.43.9-8.16V22.2c0-1.24-1.71-2.44-2.48-3.07A49.8,49.8,0,0,0,76,14.28a50.43,50.43,0,0,0-8-3.79C67.56,10.36,64,9.16,64,10Z"/><rect class="cls-3" x="28.28" y="23.72" width="29.33" height="28"/><path class="cls-2" d="M180.36,4.81h67V52.38H236.56V35.26h-45.3V52.38h-10.9Zm10.9,10.83V26h45.3V15.64Z"/><path class="cls-2" d="M297.66,4.81a23.17,23.17,0,0,1,23.13,23.13v1.31a23.17,23.17,0,0,1-23.13,23.13H254V4.81Zm-.44,36.67a12.72,12.72,0,0,0,12.66-12.74v-.36a12.72,12.72,0,0,0-12.66-12.74H264.88V41.48Z"/><text class="cls-4" transform="translate(161.55 74.21)">art of innovation</text><path class="cls-2" d="M173.78,52.38H145.09c.3,3.8,4.54,7.1,10.39,10l1.91,1L157,74a15.46,15.46,0,0,1-4.25-1.14L150.8,72c-11.2-5.19-13.17-13.54-13.61-19.61V41.55h25.69V15.72H117.8V41.55h14.41V52.38H106.89V4.81h66.89Z"/></g></g></svg>